<svg width="20" height="22" viewBox="0 0 20 22" fill="none" xmlns="http://www.w3.org/2000/svg">
<g clip-path="url(#clip0_1190_32213)">
<path d="M7.41503 17.573L8.73213 16.2559L6.19919 14.0162L3.9932 16.2217C3.40005 16.8136 3.33423 17.7544 3.83753 18.4252L5.86253 21.1252C6.19581 21.5682 6.70206 21.8002 7.21253 21.8002C7.56459 21.8002 7.92044 21.6901 8.22377 21.4627C8.97006 20.9037 9.12025 19.8456 8.56127 19.1002L7.41503 17.573ZM10.25 6.91223C12.1168 6.91223 13.6246 5.40402 13.6246 3.5752C13.6246 1.74637 12.1189 0.200195 10.25 0.200195C8.38113 0.200195 6.87503 1.7084 6.87503 3.53723C6.87503 5.36605 8.38535 6.91223 10.25 6.91223ZM18.0421 6.31738C17.5042 5.55295 16.4546 5.37323 15.6897 5.90605L13.9756 7.1084C11.7553 8.66934 8.74014 8.66934 6.51686 7.1084L4.80278 5.90605C4.04172 5.37238 2.99251 5.55801 2.45462 6.31738C1.9218 7.08098 2.10658 8.13145 2.86595 8.67145L4.58003 9.87379C5.0905 10.2282 5.63894 10.5066 6.20003 10.7555V12.3502H14.3L14.3 10.7593C14.859 10.5118 15.4062 10.2328 15.9175 9.87168L17.6316 8.66934C18.3964 8.13145 18.5779 7.08098 18.0421 6.31738ZM14.3 14.0124L11.7671 16.2521L13.0842 17.5692L11.9375 19.1002C11.3785 19.8456 11.5288 20.9037 12.275 21.4627C12.5788 21.6905 12.9332 21.8002 13.2496 21.8002C13.7626 21.8002 14.2701 21.5675 14.6008 21.1252L16.6258 18.4252C17.1296 17.7536 17.0637 16.8136 16.4689 16.2196L14.3 14.0124Z" fill="#089BAB"/>
</g>
<defs>
<clipPath id="clip0_1190_32213">
<rect width="18.9" height="21.6" fill="white" transform="translate(0.799988 0.200195)"/>
</clipPath>
</defs>
</svg>
