<svg width="20" height="22" viewBox="0 0 20 22" fill="none" xmlns="http://www.w3.org/2000/svg">
<g clip-path="url(#clip0_1190_32217)">
<path d="M16.9714 0.200195H2.82857C1.26623 0.200195 0 1.40887 0 2.9002V19.1002C0 20.5915 1.26623 21.8002 2.82857 21.8002H16.9714C18.5338 21.8002 19.8 20.5915 19.8 19.1002V2.9002C19.8 1.40887 18.5316 0.200195 16.9714 0.200195ZM2.82857 4.9252C2.82857 4.55816 3.149 4.2502 3.53571 4.2502H4.95C5.33893 4.2502 5.65714 4.55816 5.65714 4.9252V6.2752C5.65714 6.64645 5.33893 6.9502 4.95 6.9502H3.53571C3.149 6.9502 2.82857 6.64645 2.82857 6.2752V4.9252ZM5.65714 17.0752C5.65714 17.4464 5.33893 17.7502 4.95 17.7502H3.53571C3.149 17.7502 2.82857 17.4464 2.82857 17.0752V15.7252C2.82857 15.3582 3.149 15.0502 3.53571 15.0502H4.95C5.33893 15.0502 5.65714 15.3582 5.65714 15.7252V17.0752ZM7.21728 9.78941L4.74228 12.1519C4.60527 12.2827 4.42406 12.3502 4.24286 12.3502C4.06165 12.3502 3.88089 12.2827 3.743 12.1519L2.68228 11.1394C2.40605 10.8757 2.40605 10.4484 2.68228 10.1851C2.95851 9.92188 3.40622 9.92146 3.682 10.1851L4.24286 10.7218L6.218 8.8364C6.49422 8.57273 6.94193 8.57273 7.21772 8.8364C7.4935 9.10007 7.49571 9.52785 7.21728 9.78941ZM16.2643 17.0752H9.19286C8.80393 17.0752 8.48571 16.7714 8.48571 16.4002C8.48571 16.0289 8.80234 15.7252 9.19286 15.7252H16.2643C16.6548 15.7252 16.9714 16.0274 16.9714 16.4002C16.9714 16.773 16.6532 17.0752 16.2643 17.0752ZM16.2643 11.6752H9.19286C8.80393 11.6752 8.48571 11.3714 8.48571 11.0002C8.48571 10.6289 8.80234 10.3252 9.19286 10.3252H16.2643C16.6532 10.3252 16.9714 10.6289 16.9714 11.0002C16.9714 11.3714 16.6532 11.6752 16.2643 11.6752ZM16.2643 6.2752H9.19286C8.80393 6.2752 8.48571 5.97145 8.48571 5.6002C8.48571 5.22895 8.80234 4.9252 9.19286 4.9252H16.2643C16.6532 4.9252 16.9714 5.22895 16.9714 5.6002C16.9714 5.97145 16.6532 6.2752 16.2643 6.2752Z" fill="#089BAB"/>
</g>
<defs>
<clipPath id="clip0_1190_32217">
<rect width="19.8" height="21.6" fill="white" transform="translate(0 0.200195)"/>
</clipPath>
</defs>
</svg>
