<svg width="28" height="22" viewBox="0 0 28 22" fill="none" xmlns="http://www.w3.org/2000/svg">
<g clip-path="url(#clip0_1190_32215)">
<path d="M19.1937 0.940262C17.8986 -0.188422 15.9537 0.0163141 14.7683 1.26595L14.262 1.75786L13.8317 1.26722C12.642 0.0173688 10.7014 -0.188422 9.36827 0.940262C7.91702 2.23204 7.83264 4.54898 9.16577 5.94961L13.76 10.7674C14.0553 11.0785 14.5405 11.0785 14.8358 10.7674L19.3962 5.94961C20.7631 4.54898 20.6872 2.23204 19.1937 0.940262ZM9.91671 10.1177C9.45264 9.57351 8.63842 9.44273 8.05624 9.90679C7.47363 10.3734 7.37913 11.2226 7.8453 11.8052L8.64096 13.0945C9.01643 13.564 8.97888 14.2407 8.5538 14.6655C8.05641 15.1629 7.23755 15.1174 6.79838 14.5683L4.17499 11.0332V4.54898C4.17499 3.61706 3.41941 2.86148 2.48749 2.86148C1.55557 2.86148 0.799988 3.65503 0.799988 4.54898V13.1848C0.799988 13.7982 1.00877 14.3934 1.39188 14.8723L6.4586 21.251C6.71451 21.571 7.10196 21.7577 7.5116 21.7577H11.6C12.3454 21.7577 12.9513 21.1514 12.9513 20.406L12.95 15.3194C12.95 14.4002 12.6372 13.5083 12.0632 12.7907L9.91671 10.1177ZM26.1125 2.86148C25.1806 2.86148 24.425 3.61706 24.425 4.54898V10.9952L21.8009 14.5698C21.3618 15.1191 20.5425 15.1642 20.0455 14.667C19.6203 14.2422 19.5827 13.5655 19.9583 13.096L20.754 11.8067C21.2202 11.2241 21.1258 10.3749 20.5431 9.90827C19.9621 9.44294 19.1112 9.53913 18.6459 10.1192L16.5369 12.7559C15.9622 13.5096 15.65 14.3998 15.65 15.3194L15.6487 20.4452C15.6487 21.1907 16.2545 21.7969 16.9999 21.7969H21.0508C21.4605 21.7969 21.8481 21.6103 22.1038 21.2902L27.1705 14.9115C27.5933 14.4335 27.8 13.8387 27.8 13.2227V4.54898C27.8 3.65503 27.0448 2.86148 26.1125 2.86148Z" fill="#089BAB"/>
</g>
<defs>
<clipPath id="clip0_1190_32215">
<rect width="27" height="21.6" fill="white" transform="translate(0.799988 0.200195)"/>
</clipPath>
</defs>
</svg>
