<svg width="23" height="22" viewBox="0 0 23 22" fill="none" xmlns="http://www.w3.org/2000/svg">
<g clip-path="url(#clip0_1544_33417)">
<g clip-path="url(#clip1_1544_33417)">
<path fill-rule="evenodd" clip-rule="evenodd" d="M14.519 1.10795C12.973 0.12218 10.9852 -0.0209584 9.27691 0.590757C8.27905 0.941852 7.24128 1.4928 6.74502 2.48802C6.24343 3.49134 5.9454 4.59054 5.75781 5.69514C5.63046 6.22689 5.8526 6.70121 6.07391 7.17377C6.17631 7.39242 6.27853 7.6107 6.34587 7.83411C6.26921 8.0001 6.18906 8.16476 6.10889 8.32948C5.87597 8.80796 5.64284 9.28692 5.49437 9.80024C5.55635 9.8405 5.61946 9.87933 5.6826 9.91817C5.85665 10.0252 6.0309 10.1324 6.18223 10.2702C6.1818 10.3924 6.16981 10.5148 6.15783 10.6372C6.13234 10.8976 6.10689 11.1576 6.19287 11.4139L6.19284 11.4145C6.1862 11.5575 6.17955 11.7004 6.17158 11.842C6.28925 12.1473 6.29504 12.4767 6.30079 12.8041C6.30779 13.2022 6.31474 13.5972 6.52283 13.9418C6.86935 14.2656 7.34914 14.2998 7.81363 14.3329L7.81366 14.3329C7.97871 14.3446 8.14183 14.3563 8.29635 14.3807C8.29086 14.4774 8.29461 14.5804 8.29843 14.6851C8.31035 15.0119 8.32287 15.3552 8.05686 15.5731C7.67975 15.8761 7.26321 16.1183 6.8464 16.3608C6.55736 16.5289 6.2682 16.697 5.99197 16.8856C5.2317 17.3994 4.39969 17.7757 3.56829 18.1518L3.56826 18.1518C3.22844 18.3055 2.88871 18.4592 2.55403 18.6222C2.38322 18.7045 2.21016 18.7847 2.03659 18.8653L2.03637 18.8654L2.03618 18.8654C1.1675 19.2684 0.286036 19.6772 -0.390306 20.375C-1.33228 21.3243 -1.98687 22.5882 -2.14121 23.9332C-2.17157 24.3899 -2.18826 24.8488 -2.20495 25.3081C-2.24897 26.5191 -2.29307 27.7322 -2.58825 28.912C-2.90091 30.1421 -3.01134 31.4115 -3.09516 32.6754C-3.11777 33.0535 -3.18563 33.4276 -3.30005 33.7895V36.1945H0.66875C1.25602 35.095 1.60875 33.895 1.95989 32.7004L1.95993 32.7003C2.03358 32.4497 2.10717 32.1994 2.18283 31.9503C2.72939 32.8457 2.96418 33.8599 3.19863 34.8727L3.19864 34.8727C3.30148 35.317 3.40426 35.7609 3.53326 36.1945H19.5136C19.7797 34.6294 20.4542 33.1764 21.174 31.7801C21.2539 32.3461 21.3235 32.9135 21.3931 33.4808L21.3931 33.4808L21.3931 33.4809C21.5044 34.3876 21.6157 35.2941 21.7687 36.1945H26.0342C25.8337 35.402 25.8041 34.58 25.7749 33.7673L25.7748 33.7625C25.7249 32.7389 25.671 31.716 25.6171 30.6932L25.6171 30.6931L25.617 30.6916C25.5632 29.6692 25.5093 28.6468 25.4594 27.6237C25.4372 27.2785 25.4182 26.9319 25.3992 26.5849C25.3016 24.7981 25.2031 22.9977 24.6439 21.2891C24.3804 20.5046 23.964 19.6984 23.2083 19.3028C21.1844 18.2314 19.1873 17.1072 17.1907 15.9833L17.1883 15.982L17.1876 15.9816C16.7518 15.7363 16.3161 15.491 15.88 15.2463C15.5647 15.1187 15.5116 14.7866 15.4627 14.4815C15.4537 14.4249 15.4447 14.3692 15.4343 14.3159C15.4078 14.1228 15.3784 13.9299 15.349 13.7368C15.2695 13.2142 15.1899 12.691 15.1656 12.1634C15.1262 11.5861 15.4148 11.0925 15.6959 10.6115C15.7666 10.4906 15.8369 10.3704 15.9013 10.2499C16.8087 8.67674 17.2877 6.80243 17.007 4.98484C16.7768 3.41032 15.8614 1.94247 14.519 1.10795ZM7.4209 3.09163C7.72957 2.37864 8.40012 1.96003 9.0454 1.60488C10.4025 1.08499 11.9685 0.924297 13.3428 1.45904C13.9741 1.68303 14.4115 2.17465 14.8459 2.66296C14.9929 2.82818 15.1396 2.99303 15.2933 3.147C15.8015 3.94641 16.2233 4.91462 16.0437 5.88554C15.8734 6.34196 15.6286 6.93612 15.0671 6.95908C14.9374 6.98272 14.7959 6.96654 14.6546 6.95039C14.4005 6.92134 14.1472 6.89237 13.9642 7.09546C13.4759 7.62481 12.7082 7.82466 12.0124 7.75714C11.7674 7.756 11.576 7.59537 11.3952 7.4436L11.3952 7.44358C11.3629 7.41652 11.331 7.38973 11.2992 7.36419C10.6287 7.39254 9.93283 7.34933 9.31948 7.04955C9.2024 6.75652 9.11459 6.45269 9.02944 6.14886C8.41875 6.07999 7.80407 5.81532 7.39562 5.34134C7.0457 4.6513 6.9712 3.75601 7.4209 3.09163ZM10.8721 13.1992C10.732 13.2118 10.5873 13.2278 10.4638 13.3021C10.0039 13.5586 9.63794 13.9415 9.27704 14.3192C9.24934 14.3482 9.22166 14.3771 9.19397 14.406C8.67422 15.0074 8.16774 15.6692 7.9925 16.4611C7.75154 17.5199 7.69778 18.6178 7.78938 19.6985C7.79666 19.7454 7.80315 19.793 7.80969 19.8409C7.84308 20.0857 7.87747 20.3378 8.02237 20.5421C8.14318 20.7273 8.3941 20.6928 8.57332 20.6284C8.74855 20.5642 8.91906 20.4876 9.08959 20.4109C9.34349 20.2969 9.59744 20.1828 9.86706 20.1093C10.4193 19.952 10.9882 19.638 11.2179 19.0824C11.3772 18.6758 11.3421 18.2404 11.3074 17.8101C11.2947 17.6524 11.282 17.4953 11.279 17.3406C11.49 17.5803 11.7483 17.7695 12.0131 17.9454C12.0115 17.9998 12.0092 18.0549 12.0068 18.1102C11.991 18.4831 11.9746 18.8703 12.1671 19.2033C12.4565 19.7376 13.05 19.9992 13.6095 20.1545C13.8166 20.2099 14.0114 20.3034 14.2059 20.3968C14.4753 20.5262 14.7441 20.6552 15.044 20.6822C15.3666 20.6556 15.441 20.2872 15.4914 20.029C15.6235 19.1999 15.5996 18.3536 15.514 17.5212C15.4463 16.9483 15.3573 16.3682 15.1277 15.8345C14.8528 15.2769 14.4731 14.7777 14.0556 14.3197C13.6925 13.9287 13.3035 13.5444 12.8316 13.2875C12.7121 13.2112 12.5687 13.2138 12.4333 13.2191C12.3406 13.5925 12.308 13.9757 12.2753 14.3581C12.2682 14.4414 12.2611 14.5247 12.2534 14.6078C12.1313 14.6124 12.0144 14.639 11.9554 14.7611C11.8819 14.6867 11.8749 14.5866 11.8681 14.488C11.8656 14.453 11.8632 14.4182 11.8578 14.3848C11.8302 14.3848 11.8026 14.3846 11.7749 14.3845C11.6645 14.384 11.554 14.3834 11.4436 14.3914C11.4469 14.7731 11.3613 15.1402 11.2418 15.4993C11.2308 15.5039 11.2144 15.511 11.198 15.5182C11.1816 15.5253 11.1651 15.5325 11.1542 15.5371C11.1137 14.9178 11.0546 14.2998 10.9842 13.6838C10.965 13.5185 10.9232 13.3572 10.8721 13.1992ZM12.2415 14.862C12.2587 14.801 12.2939 14.6801 12.3118 14.6197C12.343 14.6808 12.3742 14.7419 12.4061 14.803C12.5813 14.8507 12.7367 14.9443 12.8601 15.0778C12.744 15.1601 12.6278 15.2417 12.5103 15.322C12.4937 15.3094 12.469 15.2905 12.4443 15.2716C12.4195 15.2527 12.3948 15.2338 12.3782 15.2211C12.3224 15.2557 12.266 15.2902 12.2103 15.324C12.2043 15.4229 12.199 15.5212 12.1937 15.6201C12.1392 15.7163 12.0868 15.8139 12.035 15.9115C12.2667 15.5398 12.5926 15.2291 12.9982 15.0539C13.0274 15.1654 13.0553 15.2769 13.0812 15.3891C13.0139 15.4311 12.9472 15.474 12.8806 15.517C12.7967 15.571 12.7129 15.625 12.6278 15.6772C12.8196 15.6951 12.9789 15.8312 13.0666 15.9965C13.3148 16.4877 13.4881 17.0399 13.4078 17.5955C13.3863 17.7749 13.269 17.9158 13.1572 18.0501C13.1477 18.0615 13.1383 18.0728 13.129 18.0841C12.807 18.1664 12.4353 18.1372 12.1804 17.9075C12.1358 17.8365 12.1088 17.7569 12.0819 17.6773C12.0635 17.623 12.0451 17.5687 12.0211 17.5172C12.0377 17.6208 12.0715 17.8285 12.0888 17.9321C12.0257 17.8813 11.9616 17.8315 11.8975 17.7816C11.6237 17.5688 11.3493 17.3554 11.1482 17.0672C11.1472 17.0521 11.1457 17.0296 11.1441 17.0068C11.1424 16.9814 11.1406 16.9555 11.1396 16.9384C11.0075 16.6861 11.044 16.3781 11.1581 16.1259C11.2415 15.9472 11.2782 15.7554 11.3149 15.5634C11.3414 15.4253 11.3678 15.287 11.4117 15.1534C11.4442 15.1548 11.4929 15.1566 11.5415 15.1584C11.5901 15.1602 11.6387 15.1621 11.6713 15.1634L11.6898 15.4375C11.7363 15.2357 11.7582 15.03 11.7595 14.8229C11.8638 14.8262 11.968 14.8255 12.0722 14.8235C12.0845 14.8033 12.1027 14.7728 12.121 14.7423C12.1392 14.7117 12.1575 14.6812 12.1698 14.6609L12.2415 14.862ZM12.8236 15.6075C12.817 15.7037 12.8568 15.7289 12.9418 15.6831C12.9471 15.5856 12.9073 15.5603 12.8236 15.6075Z" fill="white"/>
<path fill-rule="evenodd" clip-rule="evenodd" d="M12.312 14.6152L12.312 14.6152C12.2941 14.6756 12.2589 14.7965 12.2416 14.8575L12.17 14.6564C12.1577 14.6766 12.1394 14.7072 12.1212 14.7377C12.1029 14.7682 12.0847 14.7988 12.0724 14.819C11.9682 14.821 11.8639 14.8217 11.7597 14.8184C11.7584 15.0255 11.7365 15.2312 11.69 15.433L11.6714 15.1589C11.6389 15.1576 11.5903 15.1557 11.5417 15.1539C11.4931 15.1521 11.4444 15.1503 11.4119 15.1489C11.368 15.2825 11.3416 15.4208 11.3151 15.5589C11.2784 15.7509 11.2417 15.9427 11.1583 16.1214C11.0442 16.3736 11.0076 16.6816 11.1397 16.9339C11.1408 16.951 11.1426 16.9769 11.1443 17.0022C11.1459 17.0251 11.1474 17.0475 11.1484 17.0627C11.3495 17.3509 11.6239 17.5643 11.8976 17.7771C11.9618 17.827 12.0259 17.8768 12.089 17.9276C12.0717 17.824 12.0379 17.6163 12.0213 17.5127C12.0452 17.5642 12.0636 17.6185 12.0821 17.6728C12.109 17.7524 12.136 17.832 12.1806 17.903C12.4355 18.1327 12.8072 18.1619 13.1291 18.0796C13.1385 18.0683 13.1479 18.057 13.1573 18.0456C13.2692 17.9113 13.3865 17.7704 13.4079 17.591C13.4883 17.0354 13.315 16.4832 13.0667 15.9919C12.9791 15.8267 12.8198 15.6906 12.628 15.6727C12.7131 15.6205 12.7969 15.5665 12.8808 15.5125C12.9474 15.4695 13.014 15.4266 13.0813 15.3846C13.0555 15.2724 13.0276 15.1609 12.9984 15.0494C12.5928 15.2246 12.2669 15.5353 12.0352 15.907C12.087 15.8094 12.1394 15.7118 12.1938 15.6156C12.1992 15.5167 12.2045 15.4184 12.2104 15.3195C12.2662 15.2857 12.3226 15.2512 12.3784 15.2166C12.395 15.2292 12.4197 15.2482 12.4444 15.2671C12.4692 15.286 12.4939 15.3049 12.5105 15.3175C12.628 15.2372 12.7441 15.1556 12.8603 15.0733C12.7368 14.9398 12.5815 14.8462 12.4063 14.7984C12.3744 14.7374 12.3432 14.6763 12.312 14.6152ZM12.8237 15.6046C12.9074 15.5575 12.9472 15.5827 12.9419 15.6803C12.8569 15.7261 12.8171 15.7008 12.8237 15.6046Z" fill="white"/>
<path d="M10.9957 1.52581C11.6157 1.37592 12.2344 1.58658 12.8531 1.62574C12.4526 1.83775 11.5931 1.92147 11.8166 2.58585C11.0157 2.66957 10.8627 3.65939 11.17 4.27516C11.311 3.86194 11.158 3.38797 11.4055 3.00446C11.6809 2.84242 11.9976 2.7722 12.2796 2.61961C12.1931 2.53318 12.0215 2.36169 11.9364 2.27526C12.3076 2.06596 12.716 1.93497 13.0885 1.72972C13.513 1.92012 13.9214 2.15508 14.2354 2.50753C14.1556 2.93829 14.1396 3.37716 14.0851 3.81198C14.0066 4.38994 13.6261 4.86121 13.2336 5.26362C13.32 5.25552 13.4917 5.23797 13.5782 5.22986C13.7644 4.97329 13.9507 4.71672 14.113 4.4453C14.3711 4.95709 15.0656 5.02731 15.4887 4.69377C15.1042 4.58844 14.5281 4.85176 14.3312 4.36563C14.1915 3.86194 14.3591 3.32315 14.4603 2.82351C15.216 3.40012 15.6178 4.34402 15.7388 5.27578C15.8333 5.7511 15.5366 6.16026 15.3211 6.55052C15.2279 6.56943 15.043 6.60723 14.9499 6.62749C14.6718 6.60048 14.3924 6.55187 14.1143 6.58968C13.795 6.73417 13.5688 7.02045 13.2881 7.22165C13.3081 6.86245 13.3892 6.51541 13.5715 6.20348C13.7165 5.96581 13.4198 5.79567 13.3028 5.62822C13.026 5.69709 12.7306 5.7268 12.4938 5.90234C12.4486 5.69169 12.4047 5.46753 12.1905 5.36625C12.2211 5.65928 12.2809 5.94826 12.3501 6.23453C12.4034 6.25344 12.5098 6.29125 12.5617 6.31015C12.6349 6.18457 12.7067 6.06034 12.7799 5.9361C12.9954 5.92665 13.2109 5.9199 13.4265 5.9172C13.2362 6.34932 13.0686 6.79359 13.0912 7.27702C12.6801 7.38775 12.2331 7.49442 11.8193 7.34859C11.6689 7.23245 11.5479 7.08391 11.4215 6.94483C10.8055 7.08256 10.1695 6.98804 9.57344 6.80709C9.50425 6.44114 9.28872 6.06844 9.41511 5.69034C9.57477 5.45942 9.77567 5.26362 9.96593 5.05837C10.1934 5.04216 10.4223 5.02731 10.6511 5.0138C10.4116 5.57826 10.5513 6.40603 11.2552 6.49651C11.0955 6.25884 10.8906 6.05764 10.7456 5.80917C10.7137 5.12589 11.3709 4.75588 11.8446 4.40884C12.2304 4.10906 12.7346 4.29676 13.1404 4.44665C13.183 4.41694 13.2655 4.35618 13.3081 4.32647C12.9528 4.07935 12.5231 3.99563 12.0987 4.04559C11.6556 4.20494 11.3124 4.54928 10.9505 4.83961C10.6006 4.83826 10.232 4.76129 9.89408 4.88282C9.53086 5.12318 9.32464 5.54045 8.95078 5.77001C8.30949 5.70519 7.52584 5.28253 7.49657 4.53848C7.30365 3.91191 7.6682 3.33125 7.99284 2.83026C8.23498 2.46567 8.64344 2.27932 8.99734 2.0484C8.86563 2.24286 8.71528 2.4238 8.59421 2.62366C8.52236 2.98151 8.56095 3.36501 8.36138 3.68775C8.40395 3.72286 8.48644 3.79443 8.52902 3.83088C8.74455 3.49329 8.78447 3.10439 8.78447 2.71143C8.99069 2.49807 9.33129 2.50348 9.59872 2.3995C9.81558 2.6061 10.0458 2.79786 10.2972 2.9599C10.2812 3.15435 10.2546 3.3461 10.2294 3.53921C9.86481 3.62563 9.4497 3.60537 9.14902 3.86464C8.79112 4.16037 8.41992 4.43855 8.01545 4.66541C8.5543 4.84366 8.89889 4.28191 9.29271 4.01859C9.64528 3.71475 10.3664 3.95917 10.4875 3.37311C10.6897 2.85727 10.1495 2.61015 9.85151 2.32118C9.63331 2.07136 9.27674 2.29552 9.00266 2.26851C9.45769 1.62979 10.2932 1.59468 10.9957 1.52581Z" fill="white"/>
</g>
</g>
<defs>
<clipPath id="clip0_1544_33417">
<rect width="21.6" height="21.6" fill="white" transform="translate(0.699951 0.199219)"/>
</clipPath>
<clipPath id="clip1_1544_33417">
<rect width="31" height="37" fill="white" transform="translate(-3.30005 -0.800781)"/>
</clipPath>
</defs>
</svg>
