<svg width="22" height="22" viewBox="0 0 22 22" fill="none" xmlns="http://www.w3.org/2000/svg">
<g clip-path="url(#clip0_1546_33376)">
<g clip-path="url(#clip1_1546_33376)">
<path fill-rule="evenodd" clip-rule="evenodd" d="M13.9621 1.10703C12.3459 0.0765152 10.2679 -0.0731208 8.48208 0.566362C7.43893 0.933393 6.35405 1.50935 5.83526 2.54974C5.3109 3.59861 4.99935 4.7477 4.80324 5.90244C4.67012 6.45833 4.90234 6.95419 5.13369 7.44819C5.24074 7.67677 5.3476 7.90496 5.418 8.13851C5.33786 8.31203 5.25407 8.48417 5.17025 8.65636C4.92677 9.15657 4.68305 9.65726 4.52785 10.1939C4.59264 10.236 4.65862 10.2766 4.72463 10.3172L4.72464 10.3172C4.90658 10.4291 5.08873 10.5412 5.24692 10.6851C5.24648 10.8129 5.23395 10.9409 5.22142 11.0689C5.19478 11.3411 5.16817 11.6129 5.25805 11.8808L5.25805 11.8809L5.25805 11.8809L5.25804 11.8809C5.25109 12.0305 5.24414 12.1801 5.2358 12.3283C5.3588 12.6474 5.36486 12.9919 5.37087 13.3341C5.37819 13.7503 5.38545 14.1632 5.60299 14.5235C5.96524 14.862 6.4668 14.8977 6.95238 14.9323H6.95239H6.9524C7.12495 14.9446 7.29547 14.9567 7.45701 14.9822C7.45127 15.0833 7.4552 15.191 7.45919 15.3005C7.47165 15.6421 7.48473 16.001 7.20665 16.2287C6.81243 16.5455 6.37697 16.7988 5.94125 17.0522C5.63909 17.2279 5.3368 17.4037 5.04803 17.6009C4.25324 18.138 3.38346 18.5314 2.51431 18.9245C2.15906 19.0852 1.80391 19.2459 1.45404 19.4163C1.27534 19.5024 1.09429 19.5863 0.912699 19.6706C0.00458336 20.0918 -0.916903 20.5192 -1.62395 21.2486C-2.60868 22.241 -3.29299 23.5623 -3.45433 24.9683C-3.48607 25.4458 -3.50351 25.9256 -3.52097 26.4057C-3.56698 27.6716 -3.61308 28.9398 -3.92166 30.1731C-4.24851 31.4591 -4.36395 32.7861 -4.45158 34.1074C-4.47522 34.5027 -4.54616 34.8937 -4.66577 35.272V37.7862H-0.51682C0.0971031 36.6369 0.465849 35.3824 0.832924 34.1336C0.909935 33.8716 0.986872 33.6098 1.06598 33.3494C1.63736 34.2855 1.8828 35.3457 2.1279 36.4044C2.23541 36.8689 2.34286 37.333 2.47771 37.7862H19.1834C19.4616 36.1501 20.1667 34.6311 20.9192 33.1715C21.0027 33.7632 21.0755 34.3563 21.1483 34.9493L21.1483 34.9494L21.1483 34.9495C21.2646 35.8973 21.3809 36.845 21.5409 37.7862H26C25.7904 36.9578 25.7595 36.0984 25.729 35.2488L25.7288 35.2438C25.6767 34.1738 25.6203 33.1046 25.564 32.0353L25.564 32.035L25.564 32.0349C25.5077 30.9657 25.4513 29.8964 25.3992 28.8264C25.3759 28.4657 25.3561 28.1037 25.3363 27.7411L25.3363 27.7408L25.3362 27.7404V27.7404C25.2341 25.8725 25.1312 23.9904 24.5466 22.2043C24.2712 21.3841 23.8358 20.5414 23.0458 20.1277C20.93 19.0077 18.8424 17.8326 16.7551 16.6576L16.755 16.6576C16.2984 16.4005 15.8418 16.1435 15.3849 15.8871C15.0553 15.7538 14.9997 15.4065 14.9487 15.0876C14.9392 15.0284 14.9299 14.9702 14.919 14.9145C14.8912 14.7127 14.8605 14.511 14.8298 14.3092L14.8298 14.3091C14.7467 13.7628 14.6634 13.2158 14.638 12.6643C14.5969 12.0608 14.8986 11.5448 15.1925 11.042C15.2664 10.9156 15.3398 10.7899 15.4072 10.664C16.3558 9.01939 16.8565 7.06 16.563 5.15991C16.3224 3.51391 15.3655 1.97943 13.9621 1.10703ZM6.54182 3.18076C6.8645 2.4354 7.5655 1.99779 8.24007 1.62652C9.65875 1.08303 11.2958 0.915042 12.7326 1.47406C13.3925 1.70822 13.8497 2.22215 14.3039 2.73263C14.4576 2.90535 14.6109 3.07768 14.7716 3.23864C15.3029 4.07434 15.7438 5.0865 15.556 6.10148C15.378 6.57862 15.1221 7.19976 14.5351 7.22375C14.3995 7.24847 14.2516 7.23156 14.1039 7.21467C13.8382 7.1843 13.5734 7.15402 13.3821 7.36633C12.8716 7.9197 12.0691 8.12863 11.3417 8.05805C11.0856 8.05685 10.8855 7.88893 10.6965 7.73028C10.6628 7.70197 10.6295 7.67397 10.5962 7.64725C9.8952 7.6769 9.16777 7.63172 8.52658 7.31833C8.40419 7.012 8.31239 6.69438 8.22338 6.37676C7.58497 6.30476 6.94239 6.02808 6.51539 5.53258C6.1496 4.81123 6.07171 3.87529 6.54182 3.18076ZM11.286 11.0007C11.3595 11.1446 11.433 11.2886 11.5081 11.4325C11.9213 11.5452 12.2875 11.7659 12.5786 12.0804C12.3047 12.2745 12.0309 12.467 11.7538 12.6564C11.7147 12.6266 11.6564 12.582 11.5981 12.5374C11.5398 12.4928 11.4815 12.4482 11.4424 12.4185C11.3109 12.4999 11.1779 12.5813 11.0464 12.6611C11.0323 12.8943 11.0198 13.1259 11.0073 13.3591C10.879 13.586 10.7553 13.8161 10.6333 14.0461C11.1795 13.1697 11.9479 12.4373 12.9042 12.0241C12.973 12.287 13.0388 12.5499 13.0998 12.8144C12.9412 12.9135 12.7841 13.0147 12.627 13.1159L12.6269 13.116C12.4291 13.2434 12.2315 13.3707 12.0309 13.4937C12.4832 13.5359 12.8588 13.8568 13.0654 14.2465C13.6507 15.4046 14.0592 16.7068 13.8698 18.0167C13.8193 18.4395 13.5426 18.7718 13.279 19.0885L13.2125 19.1686C12.4534 19.3627 11.577 19.2938 10.976 18.7523C10.8709 18.5849 10.8073 18.3971 10.7437 18.2096C10.7003 18.0814 10.6569 17.9534 10.6004 17.832C10.6395 18.0762 10.7193 18.566 10.76 18.8102C10.6112 18.6905 10.4601 18.573 10.3089 18.4555L10.3089 18.4555C9.66344 17.9536 9.01659 17.4506 8.54233 16.7709C8.54011 16.7353 8.53647 16.6824 8.53276 16.6285C8.52865 16.5687 8.52445 16.5076 8.52199 16.4673C8.21054 15.8726 8.29662 15.1464 8.56581 14.5517C8.7624 14.1303 8.8489 13.6782 8.9355 13.2255L8.9355 13.2255C8.99782 12.8998 9.06019 12.5739 9.16366 12.2588C9.24035 12.262 9.355 12.2663 9.46965 12.2706L9.4708 12.2706C9.58505 12.2749 9.69917 12.2792 9.7756 12.2823L9.81942 12.9287C9.92898 12.4529 9.98062 11.9677 9.98375 11.4794C10.2295 11.4873 10.4752 11.4857 10.7209 11.481C10.7499 11.4333 10.7929 11.3613 10.8359 11.2893C10.879 11.2173 10.922 11.1453 10.951 11.0976L11.0354 11.3346L11.12 11.5718C11.1607 11.4278 11.2436 11.143 11.2859 11.0005L11.286 11.0007Z" fill="#089BAB"/>
<path d="M10.2789 1.54385C10.9271 1.38716 11.5738 1.60737 12.2206 1.64831C11.8019 1.86994 10.9034 1.95747 11.1371 2.652C10.2998 2.73953 10.1398 3.77427 10.4611 4.41799C10.6086 3.98602 10.4486 3.49053 10.7073 3.08962C10.9952 2.92022 11.3263 2.84681 11.6211 2.6873C11.5307 2.59695 11.3513 2.41767 11.2623 2.32732C11.6503 2.10851 12.0773 1.97158 12.4668 1.75701C12.9104 1.95605 13.3374 2.20168 13.6657 2.57013C13.5822 3.02045 13.5655 3.47924 13.5085 3.93379C13.4265 4.53798 13.0287 5.03065 12.6184 5.45133C12.7088 5.44286 12.8882 5.42451 12.9786 5.41604C13.1733 5.14782 13.368 4.8796 13.5377 4.59586C13.8076 5.13088 14.5336 5.20429 14.9759 4.85561C14.5739 4.7455 13.9717 5.02077 13.7658 4.51257C13.6198 3.98602 13.795 3.42277 13.9007 2.90046C14.6908 3.50324 15.1108 4.48999 15.2374 5.46403C15.3361 5.96094 15.026 6.38867 14.8006 6.79664C14.7033 6.8164 14.5099 6.85593 14.4126 6.8771C14.1219 6.84887 13.8298 6.79805 13.5391 6.83758C13.2053 6.98863 12.9689 7.2879 12.6754 7.49824C12.6963 7.12273 12.7811 6.75994 12.9716 6.43384C13.1233 6.18539 12.8131 6.00752 12.6907 5.83248C12.4014 5.90447 12.0926 5.93553 11.845 6.11904C11.7978 5.89882 11.7519 5.66449 11.5279 5.55861C11.5599 5.86494 11.6225 6.16704 11.6948 6.46631C11.7505 6.48607 11.8617 6.5256 11.916 6.54536C11.9925 6.41408 12.0676 6.28421 12.1441 6.15433C12.3694 6.14445 12.5947 6.13739 12.82 6.13457C12.6211 6.5863 12.4459 7.05074 12.4695 7.55611C12.0398 7.67187 11.5724 7.78339 11.1399 7.63093C10.9827 7.50953 10.8561 7.35425 10.724 7.20885C10.08 7.35283 9.4152 7.25402 8.7921 7.06486C8.71977 6.6823 8.49445 6.29268 8.62658 5.89741C8.79349 5.65602 9.00351 5.45133 9.2024 5.23675C9.44024 5.21981 9.67947 5.20429 9.9187 5.19017C9.66834 5.78024 9.81438 6.64559 10.5502 6.74017C10.3832 6.49172 10.1691 6.28138 10.0174 6.02164C9.98407 5.30734 10.6712 4.92054 11.1663 4.55775C11.5697 4.24436 12.0968 4.44058 12.521 4.59727C12.5655 4.56622 12.6517 4.50269 12.6963 4.47163C12.3249 4.2133 11.8756 4.12578 11.432 4.17801C10.9688 4.34458 10.61 4.70456 10.2316 5.00807C9.86584 5.00665 9.48057 4.92619 9.12729 5.05324C8.74759 5.30451 8.532 5.74072 8.14117 5.9807C7.47077 5.91294 6.65155 5.47109 6.62096 4.69327C6.41928 4.03825 6.80038 3.43124 7.13975 2.90751C7.39289 2.52637 7.81988 2.33156 8.18985 2.09016C8.05216 2.29344 7.89499 2.4826 7.76842 2.69153C7.69331 3.06562 7.73365 3.46653 7.52502 3.80392C7.56953 3.84062 7.65576 3.91544 7.70027 3.95355C7.92559 3.60064 7.96731 3.19408 7.96731 2.78329C8.1829 2.56025 8.53896 2.56589 8.81852 2.45719C9.04523 2.67318 9.28585 2.87363 9.54873 3.04303C9.53204 3.24631 9.50422 3.44677 9.47779 3.64864C9.0967 3.73898 8.66275 3.71781 8.34841 3.98885C7.97427 4.298 7.58622 4.5888 7.16339 4.82596C7.72669 5.0123 8.08693 4.42505 8.49862 4.14978C8.8672 3.83215 9.62105 4.08766 9.74762 3.475C9.95903 2.93575 9.39434 2.67741 9.08279 2.37532C8.85469 2.11416 8.48193 2.3485 8.19542 2.32026C8.67109 1.65255 9.54455 1.61584 10.2789 1.54385Z" fill="#089BAB"/>
</g>
</g>
<defs>
<clipPath id="clip0_1546_33376">
<rect width="21.6" height="21.6" fill="white"/>
</clipPath>
<clipPath id="clip1_1546_33376">
<rect width="31" height="37" fill="white" transform="translate(-4 -1)"/>
</clipPath>
</defs>
</svg>
