<?xml version="1.0" encoding="UTF-8" standalone="no"?>
<svg width="22px" height="22px" viewBox="0 0 22 22" version="1.1" xmlns="http://www.w3.org/2000/svg" xmlns:xlink="http://www.w3.org/1999/xlink">
    <!-- Generator: sketchtool 40 (33762) - http://www.bohemiancoding.com/sketch -->
    <title>96D8FD04-3810-4AEE-BF4F-DC5EAEB13645</title>
    <desc>Created with sketchtool.</desc>
    <defs></defs>
    <g id="Page-1" stroke="none" stroke-width="1" fill="none" fill-rule="evenodd" opacity="0.8">
        <g id="768-Ovulation-Calendar-Results-DROPDOWN" transform="translate(-341.000000, -374.000000)" fill="#FFFFFF">
            <g id="ovulation-top-copy-768" transform="translate(26.000000, 260.000000)">
                <g id="Results" transform="translate(11.000000, 100.000000)">
                    <g id="Pregnancy-test" transform="translate(278.000000, 1.000000)">
                        <g id="Group" transform="translate(26.000000, 13.000000)">
                            <path d="M20.8067399,1.25526857 C20.7961084,1.24330096 20.785034,1.23089012 20.7735166,1.219809 C19.9646407,0.410444453 19.016227,0 17.9548543,0 C16.921832,0 15.8117318,0.407784986 14.7282102,1.1918846 L14.3428202,1.48531249 C13.7673932,1.92412459 13.1715892,2.37712052 12.616982,2.88241931 C12.21343,3.2494258 11.6061087,3.52556715 10.9026613,3.84514647 C9.69554908,4.39476971 8.19297127,5.07780957 6.63192051,6.63980336 C5.07042677,8.2022404 4.40064562,9.69154209 3.86287161,10.8878591 C3.5496869,11.5837531 3.27947097,12.1856792 2.91312903,12.5881452 C2.39617493,13.1559415 1.93193509,13.7662892 1.48275647,14.356691 L1.18729084,14.74453 C-0.398123653,16.9399202 -0.395022814,19.1242294 1.19216359,20.7429585 C1.20279504,20.7558125 1.21431244,20.7682234 1.22671579,20.780191 C2.0355917,21.5895555 2.98400534,22 4.04537811,22 C5.07795737,22 6.18850058,21.592215 7.27246517,20.8081154 L7.65342535,20.517347 C8.23062431,20.0785349 8.82731426,19.623766 9.38280735,19.1175807 C9.78635935,18.7505742 10.3936807,18.4744328 11.0971281,18.1548535 C12.3046833,17.6061168 13.8068181,16.9230769 15.3683119,15.3601966 C16.9298056,13.7986461 17.5995868,12.3093444 18.1373608,11.1130274 C18.4501025,10.4162469 18.7207614,9.81520732 19.0871033,9.41274127 C19.6018426,8.84760446 20.0638675,8.23991619 20.5112742,7.65261716 L20.8018671,7.27187009 C20.8138275,7.25547004 20.8253449,7.23906999 20.8359763,7.22266994 C22.3979131,5.03747431 22.3877246,2.86734899 20.8067399,1.25526857 L20.8067399,1.25526857 Z M19.7351786,6.47624612 C19.7311918,6.48245155 19.727205,6.48821372 19.7232182,6.49353266 L19.4543312,6.84679857 C19.0047096,7.43720031 18.5803377,7.99480195 18.1050235,8.51783052 C17.5960429,9.07631865 17.2850731,9.76689366 16.9262618,10.5669501 C16.4070928,11.7216021 15.8188194,13.0309465 14.4292007,14.4200749 C13.0382531,15.8123061 11.715081,16.4129024 10.5482797,16.9434662 C9.74294761,17.3095862 9.04703083,17.626506 8.48932285,18.134021 C7.97679852,18.601644 7.42927901,19.0178507 6.84942219,19.4593222 L6.47909346,19.7425555 C4.873745,20.90164 3.33750095,20.98497 2.19683531,19.8706532 C2.18753279,19.8595721 2.17734432,19.8489342 2.16671287,19.8387396 C0.719064209,18.3902164 1.42073969,16.6917033 2.2526504,15.5388242 L2.54723007,15.1527582 C2.9964087,14.5632429 3.42033764,14.0056413 3.8956519,13.4834992 C4.40418944,12.9241246 4.71471628,12.2335496 5.07441356,11.4334932 C5.59358254,10.2792844 6.18185593,8.97038321 7.57147461,7.5803683 C8.96242223,6.18902365 10.2851514,5.5875408 11.4523957,5.05697707 C12.2577277,4.69085707 12.9536445,4.37393722 13.5109095,3.86642221 C14.0225479,3.40057219 14.5691815,2.98436556 15.1468234,2.54466696 L15.5215819,2.25833098 C17.1269304,1.09836 18.6636174,1.01591651 19.805169,2.13200629 C19.8140285,2.14220091 19.823331,2.15283878 19.8335195,2.16214692 C21.2811682,3.61067011 20.5794927,5.30741024 19.7351786,6.47624612 L19.7351786,6.47624612 Z M4.64029615,15.250272 C3.47570975,15.250272 2.52818206,16.1983721 2.52818206,17.363662 C2.52818206,18.5289519 3.47526678,19.477052 4.63985317,19.4779385 L4.64029615,19.4779385 C5.80443957,19.4779385 6.75196726,18.5298384 6.75241024,17.363662 C6.75241024,16.1983721 5.80443957,15.250272 4.64029615,15.250272 L4.64029615,15.250272 Z M4.64029615,18.1477616 C4.20839363,18.1468751 3.85711291,17.7953822 3.85711291,17.3632188 C3.85711291,16.9310553 4.20839363,16.5795624 4.64029615,16.5795624 C5.07219867,16.5795624 5.42347939,16.9310553 5.42347939,17.3632188 C5.42347939,17.7953822 5.07219867,18.1477616 4.64029615,18.1477616 L4.64029615,18.1477616 Z M13.3952925,6.90929605 C12.7667083,6.27988879 11.6636957,6.27988879 11.0351114,6.90929605 L6.91099598,11.0363461 C6.59648235,11.3506064 6.42327836,11.770359 6.42327836,12.2171495 C6.42327836,12.66394 6.59648235,13.0828061 6.91099598,13.397953 L8.60405388,15.0920337 C8.91812453,15.4062941 9.3376237,15.5796027 9.78414447,15.5796027 C10.2306652,15.5796027 10.6501644,15.4062941 10.964678,15.0920337 L13.0262927,13.0282871 L13.0262927,13.0282871 L13.0267357,13.0282871 L15.0887934,10.9645404 C15.403307,10.65028 15.576954,10.2305275 15.576954,9.78373695 C15.576954,9.33694645 15.403307,8.91808035 15.0887934,8.60293347 L13.3952925,6.90929605 L13.3952925,6.90929605 Z M10.0246809,14.151912 C9.9391864,14.2374582 9.8373017,14.249869 9.78414447,14.249869 C9.73098723,14.249869 9.62910253,14.2379014 9.54360798,14.151912 L7.85055009,12.4578313 C7.76505554,12.3722851 7.75220921,12.2698956 7.75220921,12.2171495 C7.75220921,12.1635169 7.76505554,12.0620139 7.85055009,11.9764677 L9.44305222,10.3825603 L11.6171831,12.5580046 L10.0246809,14.151912 L10.0246809,14.151912 Z M14.1492393,10.0239755 L12.5567372,11.6178829 L10.3826063,9.44243865 L11.9746655,7.84941774 C12.06016,7.76387154 12.1620447,7.7505742 12.215202,7.7505742 C12.2683592,7.7505742 12.3702439,7.7634283 12.4557384,7.84941774 L14.1492393,9.54261192 C14.2347339,9.62815812 14.2480232,9.73054761 14.2480232,9.78329371 C14.2480232,9.8369263 14.2351768,9.9384293 14.1492393,10.0239755 L14.1492393,10.0239755 Z M17.7422253,2.90103558 C17.4826408,2.64129427 17.0618127,2.64129427 16.8026712,2.90103558 C16.5430867,3.16077689 16.5430867,3.58141596 16.8026712,3.84115727 L18.1546369,5.19438288 C18.2844291,5.32425354 18.4549752,5.38896724 18.6246354,5.38896724 C18.7951815,5.38896724 18.9652847,5.32425354 19.094634,5.19438288 C19.3542184,4.93464158 19.3542184,4.5140025 19.094634,4.25426119 L17.7422253,2.90103558 L17.7422253,2.90103558 Z M16.3521637,4.29193698 C16.0925792,4.03219567 15.6717511,4.03219567 15.4126096,4.29193698 C15.1530251,4.55167829 15.1530251,4.97231736 15.4126096,5.23205867 L16.7650182,6.58439779 C16.8948104,6.71426845 17.0644706,6.77898215 17.2350167,6.77898215 C17.4046769,6.77898215 17.575223,6.71426845 17.7050153,6.58439779 C17.9645998,6.32465649 17.9645998,5.90401741 17.7050153,5.6442761 L16.3521637,4.29193698 L16.3521637,4.29193698 Z" id="Shape"></path>
                        </g>
                    </g>
                </g>
            </g>
        </g>
    </g>
</svg>