<svg width="22" height="22" viewBox="0 0 22 22" fill="none" xmlns="http://www.w3.org/2000/svg">
<g clip-path="url(#clip0_1190_32209)">
<path d="M2.44444 2H3.66667V19H2.44444C1.09427 19 0 17.9125 0 16.5714V4.42857C0 3.08754 1.09427 2 2.44444 2ZM4.88889 2H17.1111V19H4.88889V2ZM6.72222 11.4866C6.72222 11.8219 6.99585 12.0938 7.33333 12.0938H9.36146V14.1429C9.36146 14.4782 9.63512 14.75 9.97257 14.75H11.9587C12.2962 14.75 12.5698 14.4782 12.5698 14.1429V12.0938H14.6667C15.0042 12.0938 15.2778 11.8219 15.2778 11.4866V9.51339C15.2778 9.17806 15.0042 8.90625 14.6667 8.90625H12.6042V6.85714C12.6042 6.52185 12.3305 6.25 11.9931 6.25H10.0069C9.6695 6.25 9.39583 6.52185 9.39583 6.85714V8.90625H7.33333C6.99585 8.90625 6.72222 9.17806 6.72222 9.51339V11.4866ZM19.5556 2H18.3333V19H19.5556C20.9057 19 22 17.9125 22 16.5714V4.42857C22 3.08754 20.9038 2 19.5556 2Z" fill="#089BAB"/>
</g>
<defs>
<clipPath id="clip0_1190_32209">
<rect width="21.6" height="21.6" fill="white" transform="translate(0.299927 0.200195)"/>
</clipPath>
</defs>
</svg>
