<?xml version="1.0" encoding="UTF-8" standalone="no"?>
<svg width="22px" height="22px" viewBox="0 0 22 22" version="1.1" xmlns="http://www.w3.org/2000/svg" xmlns:xlink="http://www.w3.org/1999/xlink">
    <!-- Generator: sketchtool 40 (33762) - http://www.bohemiancoding.com/sketch -->
    <title>87BBA363-D303-4785-9C88-513EB8B3C502</title>
    <desc>Created with sketchtool.</desc>
    <defs></defs>
    <g id="Page-1" stroke="none" stroke-width="1" fill="none" fill-rule="evenodd" opacity="0.9">
        <g id="768-Ovulation-Calendar-Results-DROPDOWN" transform="translate(-65.000000, -379.000000)" fill="#FFFFFF">
            <g id="ovulation-top-copy-768" transform="translate(26.000000, 260.000000)">
                <g id="Results" transform="translate(11.000000, 100.000000)">
                    <g id="Fertility">
                        <path d="M37.5892975,25.1236765 C35.6788805,25.1236765 34.1241597,26.6788805 34.1241597,28.5888142 C34.1241597,30.4992311 35.6788805,32.0534687 37.5892975,32.0534687 C39.4997144,32.0534687 41.0544352,30.4992311 41.0544352,28.5888142 C41.0544352,26.6788805 39.4997144,25.1236765 37.5892975,25.1236765 L37.5892975,25.1236765 Z M37.5892975,30.6036202 C36.477747,30.6036202 35.5740082,29.7003647 35.5740082,28.5888142 C35.5740082,27.477747 36.4782303,26.5735249 37.5892975,26.5735249 C38.7003647,26.5735249 39.6045868,27.477747 39.6045868,28.5888142 C39.6045868,29.7003647 38.7003647,30.6036202 37.5892975,30.6036202 L37.5892975,30.6036202 Z M49.2750758,29.2745925 L47.9905101,29.2745925 C47.9006195,28.1572427 47.6063003,27.1003032 47.1457317,26.1342208 L48.2616317,25.4900048 C48.6081455,25.290409 48.7270331,24.8467554 48.526954,24.4997584 C48.3268749,24.1532446 47.8841879,24.0338737 47.5367075,24.2344361 L46.4241905,24.8762357 C45.8022055,23.9778129 45.0221871,23.1973112 44.1237643,22.5753262 L44.7655639,21.4632925 C44.9661263,21.1167787 44.8472387,20.6731251 44.4997584,20.473046 C44.1532446,20.2724836 43.7105575,20.3913712 43.5095119,20.7383683 L42.8657792,21.8542683 C41.8992136,21.3936997 40.8417908,21.098414 39.7244409,21.0090066 L39.7244409,19.7249242 C39.7244409,19.324766 39.4001582,19 38.9995167,19 C38.5993586,19 38.2745925,19.324766 38.2745925,19.7249242 L38.2745925,21.0090066 C37.1572427,21.098414 36.0998199,21.3936997 35.1342208,21.8542683 L34.4904881,20.7383683 C34.290409,20.3913712 33.8467554,20.2724836 33.4997584,20.473046 C33.1532446,20.6731251 33.034357,21.1162954 33.2344361,21.4632925 L33.8762357,22.5758095 C32.9782962,23.1977945 32.1973112,23.9768464 31.5753262,24.8762357 L30.464259,24.2344361 C30.1177453,24.0338737 29.6740916,24.1532446 29.4740126,24.4997584 C29.2729669,24.8467554 29.3923378,25.290409 29.7393348,25.4900048 L30.8547515,26.1342208 C30.394183,27.1003032 30.0993805,28.1582092 30.0094899,29.2745925 L28.7249242,29.2745925 C28.3242828,29.2745925 28,29.5993586 28,29.9995167 C28,30.3996749 28.3242828,30.7244409 28.7249242,30.7244409 L30.0094899,30.7244409 C30.0993805,31.8422741 30.394183,32.8987303 30.8547515,33.8652959 L29.7383683,34.5095119 C29.3913712,34.709591 29.2729669,35.1532446 29.473046,35.4997584 C29.6073986,35.7322174 29.8509732,35.8622205 30.1017969,35.8622205 C30.2245508,35.8622205 30.349721,35.8317736 30.4632925,35.7655639 L31.5753262,35.1232811 C32.1973112,36.0212205 32.9778129,36.8022055 33.8762357,37.4241905 L33.2339528,38.5362242 C33.0333904,38.8832213 33.1527613,39.3268749 33.4992751,39.5264707 C33.6133298,39.5931637 33.7380168,39.6236106 33.8612539,39.6236106 C34.1120777,39.6236106 34.3551689,39.4936075 34.4895216,39.2611485 L35.1342208,38.1452485 C36.1007864,38.605817 37.1582092,38.9006195 38.2745925,38.9905101 L38.2745925,40.2745925 C38.2745925,40.6742674 38.5993586,40.9995167 38.9995167,40.9995167 C39.4006414,40.9995167 39.7244409,40.6742674 39.7244409,40.2745925 L39.7244409,38.9905101 C40.8422741,38.9006195 41.8992136,38.605817 42.8657792,38.1452485 L43.5095119,39.2611485 C43.6433812,39.4936075 43.8869558,39.6236106 44.1382628,39.6236106 C44.2610167,39.6236106 44.3857036,39.5931637 44.4997584,39.5264707 C44.8467554,39.3268749 44.9651597,38.8832213 44.7655639,38.5362242 L44.1237643,37.4241905 C45.0217038,36.8022055 45.8022055,36.0221871 46.4241905,35.1232811 L47.535741,35.7655639 C47.6497957,35.8317736 47.774966,35.8622205 47.8982031,35.8622205 C48.1485436,35.8622205 48.3916348,35.7322174 48.5259874,35.4997584 C48.7270331,35.1532446 48.6081455,34.709591 48.2616317,34.5095119 L47.1452485,33.8648126 C47.605817,32.8987303 47.9006195,31.8413075 47.9905101,30.7244409 L49.2750758,30.7244409 C49.675234,30.7244409 50,30.3996749 50,29.9995167 C50,29.5993586 49.675234,29.2745925 49.2750758,29.2745925 L49.2750758,29.2745925 Z M39.0004833,37.5769079 C34.8220201,37.5769079 31.4230921,34.1779799 31.4230921,29.9990334 C31.4230921,25.8205703 34.8220201,22.4216423 39.0004833,22.4216423 C43.1784632,22.4216423 46.5773912,25.8205703 46.5773912,29.9990334 C46.5773912,34.1779799 43.1784632,37.5769079 39.0004833,37.5769079 L39.0004833,37.5769079 Z" id="Ovulation-Icon"></path>
                    </g>
                </g>
            </g>
        </g>
    </g>
</svg>