<?xml version="1.0" encoding="UTF-8" standalone="no"?>
<svg width="22px" height="22px" viewBox="0 0 22 22" version="1.1" xmlns="http://www.w3.org/2000/svg" xmlns:xlink="http://www.w3.org/1999/xlink">
    <!-- Generator: sketchtool 40 (33762) - http://www.bohemiancoding.com/sketch -->
    <title>16B5755D-0231-47C4-BDE5-2697969E9A98</title>
    <desc>Created with sketchtool.</desc>
    <defs></defs>
    <g id="Page-1" stroke="none" stroke-width="1" fill="none" fill-rule="evenodd" opacity="0.9">
        <g id="768-Ovulation-Calendar-Results-DROPDOWN" transform="translate(-156.000000, -377.000000)" fill="#FFFFFF">
            <g id="ovulation-top-copy-768" transform="translate(26.000000, 260.000000)">
                <g id="Results" transform="translate(11.000000, 100.000000)">
                    <g id="Ovulation" transform="translate(93.000000, 1.000000)">
                        <path d="M47.2750758,26.2748182 L45.9905101,26.2748182 C45.9006195,25.1574438 45.6063003,24.1004811 45.1457317,23.1343775 L46.2616317,22.4901474 C46.6081455,22.2905472 46.7270331,21.8468839 46.526954,21.4998792 C46.3268749,21.1533578 45.8841879,21.0339843 45.5367075,21.2345511 L44.4241905,21.8763648 C43.8022055,20.9779223 43.0221871,20.1974034 42.1237643,19.5754048 L42.7655639,18.4633466 C42.9661263,18.1168252 42.8472387,17.6731618 42.4997584,17.4730784 C42.1532446,17.2725116 41.7105575,17.3914018 41.5095119,17.7384064 L40.8657792,18.854331 C39.8992136,18.3937523 38.8417908,18.0984601 37.7244409,18.0090508 L37.7244409,16.7249401 C37.7244409,16.3247732 37.4001582,16 36.9995167,16 C36.5993586,16 36.2745925,16.3247732 36.2745925,16.7249401 L36.2745925,18.0090508 C35.1572427,18.0984601 34.0998199,18.3937523 33.1342208,18.854331 L32.4904881,17.7384064 C32.290409,17.3914018 31.8467554,17.2725116 31.4997584,17.4730784 C31.1532446,17.6731618 31.034357,18.1163419 31.2344361,18.4633466 L31.8762357,19.5758881 C30.9782962,20.1978867 30.1973112,20.9769557 29.5753262,21.8763648 L28.464259,21.2345511 C28.1177453,21.0339843 27.6740916,21.1533578 27.4740126,21.4998792 C27.2729669,21.8468839 27.3923378,22.2905472 27.7393348,22.4901474 L28.8547515,23.1343775 C28.394183,24.1004811 28.0993805,25.1584104 28.0094899,26.2748182 L26.7249242,26.2748182 C26.3242828,26.2748182 26,26.5995914 26,26.9997584 C26,27.3999253 26.3242828,27.7246985 26.7249242,27.7246985 L28.0094899,27.7246985 C28.0993805,28.8425562 28.394183,29.8990356 28.8547515,30.8656225 L27.7383683,31.5098526 C27.3913712,31.7099361 27.2729669,32.1535994 27.473046,32.5001208 C27.6073986,32.732585 27.8509732,32.8625909 28.1017969,32.8625909 C28.2245508,32.8625909 28.349721,32.8321434 28.4632925,32.7659322 L29.5753262,32.1236352 C30.1973112,33.0215944 30.9778129,33.8025966 31.8762357,34.4245952 L31.2339528,35.5366534 C31.0333904,35.8836581 31.1527613,36.3273215 31.4992751,36.5269216 C31.6133298,36.5936161 31.7380168,36.6240636 31.8612539,36.6240636 C32.1120777,36.6240636 32.3551689,36.4940577 32.4895216,36.2615936 L33.1342208,35.145669 C34.1007864,35.6062477 35.1582092,35.9010567 36.2745925,35.9909492 L36.2745925,37.2750599 C36.2745925,37.6747435 36.5993586,38 36.9995167,38 C37.4006414,38 37.7244409,37.6747435 37.7244409,37.2750599 L37.7244409,35.9909492 C38.8422741,35.9010567 39.8992136,35.6062477 40.8657792,35.145669 L41.5095119,36.2615936 C41.6433812,36.4940577 41.8869558,36.6240636 42.1382628,36.6240636 C42.2610167,36.6240636 42.3857036,36.5936161 42.4997584,36.5269216 C42.8467554,36.3273215 42.9651597,35.8836581 42.7655639,35.5366534 L42.1237643,34.4245952 C43.0217038,33.8025966 43.8022055,33.022561 44.4241905,32.1236352 L45.535741,32.7659322 C45.6497957,32.8321434 45.774966,32.8625909 45.8982031,32.8625909 C46.1485436,32.8625909 46.3916348,32.732585 46.5259874,32.5001208 C46.7270331,32.1535994 46.6081455,31.7099361 46.2616317,31.5098526 L45.1452485,30.8651392 C45.605817,29.8990356 45.9006195,28.8415896 45.9905101,27.7246985 L47.2750758,27.7246985 C47.675234,27.7246985 48,27.3999253 48,26.9997584 C48,26.5995914 47.675234,26.2748182 47.2750758,26.2748182 L47.2750758,26.2748182 Z M37.0004833,34.577316 C32.8220201,34.577316 29.4230921,31.1783133 29.4230921,26.9992751 C29.4230921,22.8207201 32.8220201,19.4217174 37.0004833,19.4217174 C41.1784632,19.4217174 44.5773912,22.8207201 44.5773912,26.9992751 C44.5773912,31.1783133 41.1784632,34.577316 37.0004833,34.577316 L37.0004833,34.577316 Z" id="Ovulation-Icon-Copy"></path>
                    </g>
                </g>
            </g>
        </g>
    </g>
</svg>