<?xml version="1.0" encoding="UTF-8" standalone="no"?>
<svg width="16px" height="21px" viewBox="0 0 16 21" version="1.1" xmlns="http://www.w3.org/2000/svg" xmlns:xlink="http://www.w3.org/1999/xlink">
    <!-- Generator: sketchtool 40 (33762) - http://www.bohemiancoding.com/sketch -->
    <title>0A7E7DAE-46BE-4482-A891-D434C5D2DE2D</title>
    <desc>Created with sketchtool.</desc>
    <defs></defs>
    <g id="Page-1" stroke="none" stroke-width="1" fill="none" fill-rule="evenodd" opacity="0.9">
        <g id="768-Ovulation-Calendar-Results-DROPDOWN" transform="translate(-252.000000, -378.000000)" stroke="#FFFFFF" stroke-width="2">
            <g id="ovulation-top-copy-768" transform="translate(26.000000, 260.000000)">
                <g id="Results" transform="translate(11.000000, 100.000000)">
                    <g id="Period-days" transform="translate(185.000000, 0.000000)">
                        <path d="M43.7152935,28.6033161 C42.7765354,26.4187374 41.4678246,24.4193569 40.0312801,22.4867757 C39.4246711,21.6701837 38.7806953,20.8765915 38.0969491,20 C37.3732138,20.9345909 36.6868453,21.7857826 36.0413399,22.661974 C34.5525694,24.6833543 33.197314,26.772534 32.2917708,29.0791115 C31.8090622,30.3082995 31.4723242,31.5650872 31.681884,32.8838744 C32.2456633,36.4304398 35.9648583,38.6936177 39.7537608,37.8074263 C42.7758799,37.1008332 44.859678,34.3706599 44.5476327,31.5484874 C44.4344398,30.5252974 44.1239242,29.5529068 43.7152935,28.6033161 Z" id="Shape"></path>
                    </g>
                </g>
            </g>
        </g>
    </g>
</svg>