<svg width="75" height="96" viewBox="0 0 75 96" fill="none" xmlns="http://www.w3.org/2000/svg">
<path d="M47.8856 75.6418C48.2454 75.6418 48.6054 75.5044 48.8799 75.2301L49.8272 74.2828C50.3764 73.7334 50.3764 72.8432 49.8272 72.294C49.278 71.745 48.3875 71.745 47.8383 72.294L46.8911 73.2412C46.3419 73.7906 46.3419 74.6809 46.8911 75.2301C47.1658 75.5044 47.5256 75.6418 47.8856 75.6418ZM45.471 59.652L45.1237 59.9994C44.5747 60.5488 44.5747 61.4391 45.1239 61.9881C45.3986 62.2627 45.7584 62.3998 46.1182 62.3998C46.478 62.3998 46.838 62.2626 47.1127 61.9879L47.46 61.6404C48.009 61.0911 48.009 60.2008 47.4598 59.6518C46.9104 59.1024 46.0202 59.1026 45.471 59.652ZM45.2814 81.1114C44.7322 80.5624 43.8418 80.5624 43.2928 81.1114C42.7436 81.6608 42.7436 82.551 43.2928 83.1002L44.4187 84.2261C44.6932 84.5006 45.0532 84.6379 45.413 84.6379C45.7729 84.6379 46.1329 84.5006 46.4074 84.2261C46.9565 83.6768 46.9565 82.7865 46.4074 82.2373L45.2814 81.1114ZM24.5962 69.4419C24.8707 69.7164 25.2307 69.8537 25.5905 69.8537C25.9503 69.8537 26.3104 69.7164 26.5849 69.4419C27.134 68.8926 27.134 68.0023 26.5849 67.4531L25.6048 66.4729C25.0556 65.9239 24.1652 65.9239 23.6162 66.4729C23.067 67.0222 23.067 67.9125 23.6162 68.4617L24.5962 69.4419ZM32.144 81.1003L30.996 82.2482C30.4468 82.7974 30.4468 83.6878 30.9958 84.237C31.2705 84.5117 31.6303 84.6489 31.9903 84.6489C32.3501 84.6489 32.7101 84.5117 32.9846 84.2372L34.1325 83.0893C34.6817 82.5401 34.6817 81.6497 34.1327 81.1005C33.5835 80.5513 32.6932 80.5511 32.144 81.1003ZM26.3685 34.7919C27.8096 34.7919 29.18 34.1679 30.1284 33.0797C30.6388 32.4943 30.5777 31.6061 29.9923 31.0957C29.4069 30.5852 28.5185 30.6463 28.0084 31.2319C27.5942 31.707 26.9966 31.9794 26.3687 31.9794C25.7407 31.9794 25.143 31.707 24.7288 31.2319C24.2184 30.6461 23.33 30.5854 22.7447 31.0957C22.1593 31.6061 22.0982 32.4943 22.6085 33.0797C23.5569 34.1679 24.9273 34.7919 26.3685 34.7919ZM48.6318 34.7919C50.0728 34.7919 51.4432 34.1679 52.3918 33.0799C52.9022 32.4943 52.8412 31.6061 52.2559 31.0957C51.6707 30.5854 50.7821 30.6465 50.2717 31.2317C49.8575 31.707 49.2598 31.9794 48.6318 31.9794C48.0039 31.9794 47.4063 31.707 46.9922 31.2319C46.4818 30.6461 45.5936 30.5854 45.008 31.0957C44.4225 31.6061 44.3615 32.4943 44.8719 33.0797C45.8205 34.1679 47.1909 34.7919 48.6318 34.7919ZM39.5876 35.841C39.5876 34.6114 38.6529 33.6148 37.5002 33.6148C36.3472 33.6148 35.4127 34.6116 35.4127 35.841C35.4127 37.0704 36.3472 38.0672 37.5002 38.0672C38.6531 38.0672 39.5876 37.0704 39.5876 35.841ZM64.0702 23.4846C60.0637 12.4948 48.8839 4.78612 36.0037 5.42925C36.3519 3.93225 37.694 2.8125 39.2955 2.8125C40.0721 2.8125 40.7017 2.18306 40.7017 1.40625C40.7017 0.629437 40.0721 0 39.2955 0C36.0425 0 33.3692 2.52056 33.1211 5.71106C28.745 6.36375 24.6084 7.99556 20.9754 10.5264C20.3381 10.9704 20.1815 11.847 20.6254 12.4841C21.0692 13.1213 21.9455 13.2778 22.583 12.8342C25.839 10.5658 29.5462 9.09806 33.4712 8.50237C34.4428 11.4516 37.2223 13.587 40.4927 13.587C41.2693 13.587 41.8989 12.9576 41.8989 12.1807C41.8989 11.4041 41.2693 10.7745 40.4927 10.7745C38.6959 10.7745 37.1381 9.73388 36.3885 8.22394C50.969 7.6275 62.8249 18.7886 62.8249 32.361C62.8249 46.1064 51.0157 54.5608 37.5002 54.5608C23.8494 54.5608 12.1755 46.0056 12.1755 32.361C12.1755 26.8221 14.1896 21.4104 17.8466 17.1227C18.3506 16.5319 18.2801 15.6441 17.6893 15.1403C17.0981 14.6361 16.2107 14.7066 15.7069 15.2976C13.6181 17.7465 12.0099 20.5252 10.9346 23.4846C5.45829 23.2187 0.852539 27.615 0.852539 33.1011C0.852539 38.8478 5.89085 43.3539 11.6366 42.6594C13.404 46.3929 16.151 49.6322 19.7989 52.1524C18.7387 53.8582 17.9392 55.695 17.4122 57.6347C16.457 58.2336 15.8827 59.1936 15.7464 60.2222C15.6202 61.1751 15.5561 62.1486 15.5561 63.1157C15.5561 71.541 16.7666 81.4157 21.7323 88.1848C25.482 93.2978 30.9343 96 37.5002 96C42.7415 96 47.3801 94.2251 50.9147 90.8672C51.4777 90.3323 51.5006 89.442 50.9657 88.8791C50.4307 88.3163 49.5405 88.2936 48.9776 88.8281C45.9328 91.7209 42.071 93.1875 37.5002 93.1875C31.8667 93.1875 27.1983 90.8826 24 86.5217C23.0975 85.2917 22.2924 83.8753 21.5996 82.3011C31.0414 74.6711 43.2064 68.5704 55.6275 65.6734C56.1184 65.5588 56.5834 65.9471 56.562 66.4549C56.2605 73.6009 54.959 79.4306 52.6937 83.7821C52.335 84.471 52.6029 85.3202 53.2918 85.6787C53.9807 86.0376 54.8299 85.7696 55.1884 85.0806C57.6452 80.3608 59.0527 74.1341 59.3718 66.5734C59.415 65.5528 59.0325 64.5887 58.316 63.8803C58.3189 63.6126 58.3204 63.3604 58.3204 63.1157C58.3204 59.2014 57.2445 55.4419 55.2004 52.1535C58.8525 49.6307 61.5984 46.3892 63.3641 42.6594C69.1159 43.3547 74.1482 38.8425 74.1482 33.1011C74.148 27.6214 69.5499 23.2219 64.0702 23.4846ZM3.66485 33.1014C3.66485 29.4754 6.51148 26.5024 10.0873 26.2976C8.99791 30.8167 9.12616 35.5629 10.5444 39.9154C6.7481 39.9523 3.66485 36.8726 3.66485 33.1014ZM20.5517 79.5399C19.1023 75.0797 18.3684 69.567 18.3684 63.1162C18.3684 62.2723 18.4243 61.4231 18.5344 60.5921C18.6007 60.0919 19.0877 59.7966 19.5412 59.9228C23.9289 61.1409 32.0632 63.7241 39.9892 67.9528C31.031 71.8838 24.3349 76.5621 20.5517 79.5399ZM55.5028 62.8543C55.3314 62.8691 55.1597 62.8948 54.9887 62.9348C50.8057 63.9103 46.9014 65.1683 43.3093 66.5749C34.6393 61.6178 25.3835 58.6354 20.4664 57.2612C20.9025 55.9896 21.4841 54.777 22.1975 53.6304C31.3264 58.6273 43.6749 58.6283 52.8058 53.6289C54.5302 56.4002 55.4561 59.5603 55.5028 62.8543ZM64.4561 39.9154C65.8991 35.4868 65.9803 30.7044 64.9205 26.2982C68.4928 26.5065 71.3355 29.4778 71.3355 33.1014C71.3355 36.8677 68.2565 39.9523 64.4561 39.9154Z" fill="white"/>
</svg>
