<svg width="112" height="45" viewBox="0 0 112 45" fill="none" xmlns="http://www.w3.org/2000/svg">
<g clip-path="url(#clip0_1423_32989)">
<path fill-rule="evenodd" clip-rule="evenodd" d="M96.3933 27.3095C96.3904 27.3483 96.3875 27.3869 96.3875 27.425L96.3809 27.4317L96.3708 27.5268C96.2174 29.2511 95.035 29.7948 94.1578 29.9616C94.0144 29.9915 93.8689 30.0105 93.7226 30.0183C93.5783 30.0286 93.4336 30.0314 93.289 30.0266H21.117C19.9013 30.0449 18.5571 29.9132 17.6049 29.0794C16.7043 28.2722 16.4775 26.9914 16.4775 25.8374V19.9122C16.4775 19.5915 16.6049 19.284 16.8317 19.0572C17.0584 18.8305 17.3659 18.7031 17.6866 18.7031H18.7956C19.153 18.7031 19.4957 18.8451 19.7484 19.0978C20.0011 19.3505 20.1431 19.6932 20.1431 20.0506V20.8844V23.581C20.1514 24.2298 20.1848 24.9068 20.485 25.4955C20.5834 25.7 20.728 25.8788 20.9075 26.0178C21.087 26.1567 21.2963 26.252 21.5189 26.296C22.1858 26.3999 22.8604 26.4457 23.5351 26.4328H23.7586H35.8959C36.1136 26.4328 36.3223 26.3463 36.4761 26.1924C36.63 26.0386 36.7164 25.8299 36.7164 25.6123V20.0422C36.7164 19.6849 36.8584 19.3421 37.1111 19.0894C37.3638 18.8367 37.7066 18.6947 38.0639 18.6947H39.1613C39.4806 18.6947 39.7868 18.8216 40.0127 19.0474C40.2385 19.2732 40.3653 19.5795 40.3653 19.8988V22.7339V25.6223C40.3653 25.73 40.3865 25.8367 40.4278 25.9363C40.469 26.0358 40.5294 26.1263 40.6056 26.2024C40.6818 26.2786 40.7723 26.3391 40.8718 26.3803C40.9714 26.4215 41.0781 26.4428 41.1858 26.4428H47.7965C48.0141 26.4428 48.2228 26.3563 48.3767 26.2024C48.5305 26.0486 48.617 25.8399 48.617 25.6223V20.0522C48.6174 19.6947 48.7598 19.352 49.0127 19.0993C49.2657 18.8467 49.6086 18.7048 49.9661 18.7048H50.9184C51.2757 18.7048 51.6185 18.8467 51.8712 19.0994C52.1239 19.3521 52.2658 19.6949 52.2658 20.0522V25.0953C52.2663 25.4528 52.4086 25.7955 52.6616 26.0482C52.9146 26.3009 53.2575 26.4428 53.615 26.4428H59.2384C59.5959 26.4428 59.9388 26.3009 60.1918 26.0482C60.4448 25.7955 60.5871 25.4528 60.5875 25.0953V23.3075V20.0522C60.5884 19.6948 60.7309 19.3524 60.9838 19.0998C61.2366 18.8472 61.5793 18.7052 61.9367 18.7048H62.8873C63.2446 18.7048 63.5874 18.8467 63.8401 19.0994C64.0928 19.3521 64.2347 19.6949 64.2347 20.0522V25.0986C64.2347 25.456 64.3767 25.7987 64.6294 26.0514C64.8821 26.3041 65.2249 26.4461 65.5822 26.4461H71.1756C71.533 26.4461 71.8757 26.3041 72.1284 26.0514C72.3811 25.7987 72.5231 25.456 72.5231 25.0986V10.8533C72.5231 10.496 72.6651 10.1532 72.9178 9.90053C73.1705 9.64783 73.5132 9.50586 73.8706 9.50586H74.8712C75.2277 9.50586 75.5697 9.64714 75.8222 9.89876C76.0748 10.1504 76.2173 10.4918 76.2187 10.8483V17.1855C76.2191 17.543 76.3614 17.8858 76.6144 18.1384C76.8674 18.3911 77.2103 18.533 77.5678 18.533H93.2456C93.8025 18.5016 94.3593 18.5956 94.8749 18.8082C95.1705 18.9208 95.4409 19.0909 95.6704 19.3085C96.1657 19.7871 96.3508 20.4758 96.3992 21.1429V21.2546V21.4914V26.813V27.1916C96.3992 27.231 96.3962 27.2704 96.3933 27.3095ZM46.1753 33.532C46.3927 33.2685 46.6817 33.0735 47.0073 32.9705C47.9729 32.642 49.1136 33.3157 49.2804 34.323C49.3452 34.6584 49.3117 35.0053 49.1838 35.3221C49.0559 35.6388 48.8392 35.9119 48.5597 36.1082C48.2802 36.3046 47.9499 36.416 47.6086 36.4289C47.2672 36.4419 46.9294 36.3558 46.6359 36.1811C46.3423 36.0065 46.1056 35.7506 45.9541 35.4445C45.8026 35.1383 45.7429 34.7949 45.7822 34.4556C45.8214 34.1162 45.958 33.7955 46.1753 33.532ZM27.9014 32.9903C27.5818 33.104 27.3015 33.307 27.0939 33.5752C26.8862 33.8434 26.7598 34.1656 26.7298 34.5035C26.6998 34.8414 26.7673 35.1808 26.9244 35.4815C27.0815 35.7821 27.3215 36.0314 27.616 36.1997C27.9106 36.368 28.2472 36.4482 28.586 36.431C28.9248 36.4137 29.2515 36.2995 29.5273 36.1021C29.8032 35.9047 30.0166 35.6322 30.1422 35.3171C30.2679 35.002 30.3005 34.6575 30.2362 34.3245C30.0727 33.2955 28.8787 32.6168 27.9014 32.9903ZM51.984 33.5475C52.1978 33.2817 52.4838 33.0833 52.8076 32.9762C53.7649 32.6343 54.9322 33.2981 55.1007 34.3103C55.1675 34.6448 55.1364 34.9914 55.011 35.3086C54.8857 35.6258 54.6714 35.9001 54.3939 36.0984C54.1164 36.2968 53.7876 36.4108 53.4469 36.4267C53.1062 36.4427 52.7681 36.36 52.4733 36.1884C52.1785 36.0169 51.9395 35.7639 51.785 35.4598C51.6305 35.1558 51.5671 34.8135 51.6024 34.4743C51.6377 34.135 51.7702 33.8132 51.984 33.5475ZM61.8933 32.9669C61.5661 33.0677 61.2752 33.2611 61.0558 33.5238C60.8363 33.7865 60.6976 34.1072 60.6566 34.447C60.6155 34.7869 60.6738 35.1313 60.8245 35.4387C60.9751 35.7461 61.2116 36.0033 61.5053 36.1791C61.799 36.3549 62.1374 36.4418 62.4795 36.4293C62.8216 36.4168 63.1527 36.3054 63.4328 36.1087C63.7129 35.9119 63.93 35.6382 64.0579 35.3207C64.1857 35.0031 64.2187 34.6553 64.153 34.3194C64.1041 34.0763 64.005 33.8461 63.8619 33.6435C63.7189 33.441 63.5351 33.2706 63.3223 33.1432C63.1096 33.0159 62.8725 32.9344 62.6264 32.9041C62.3803 32.8737 62.1306 32.8951 61.8933 32.9669ZM77.5662 22.1396H91.2045C91.9487 22.1396 92.552 22.7429 92.552 23.4871V25.1148C92.552 25.859 91.9487 26.4623 91.2045 26.4623H77.5662C76.822 26.4623 76.2188 25.859 76.2188 25.1148V23.4871C76.2188 22.7429 76.822 22.1396 77.5662 22.1396Z" fill="white"/>
<path fill-rule="evenodd" clip-rule="evenodd" d="M43.7613 1.17091L43.766 1.50011H7.9056C4.03727 1.50011 0.901367 4.63603 0.901367 8.50435V37.3551C0.901367 41.2235 4.03727 44.3594 7.9056 44.3594H104.798C108.666 44.3594 111.802 41.2234 111.802 37.3551V8.50435C111.802 4.63601 108.666 1.50011 104.798 1.50011H69.3807L69.3854 1.17091C69.3856 0.979844 69.3149 0.795488 69.1871 0.653485C69.0593 0.511482 68.8833 0.421919 68.6933 0.402111L65.1778 0.00186882C65.1317 -0.00062294 65.0855 -0.00062294 65.0394 0.00186882C64.4016 -0.00587133 63.7869 0.240066 63.3304 0.685578C62.874 1.13109 62.6132 1.73968 62.6054 2.37747C62.5977 3.01526 62.8436 3.63 63.2892 4.08646C63.7347 4.54292 64.3433 4.8037 64.981 4.81144C65.0266 4.81476 65.0723 4.81476 65.1178 4.81144L68.6433 4.49625C68.8302 4.48058 69.0051 4.39722 69.1349 4.26182C69.2648 4.12641 69.3408 3.94827 69.3487 3.76081L69.3547 3.33455H104.798C107.653 3.33455 109.967 5.64915 109.967 8.50435V37.3551C109.967 40.2103 107.653 42.5249 104.798 42.5249H7.9056C5.05041 42.5249 2.73581 40.2103 2.73581 37.3551V8.50435C2.73581 5.64916 5.0504 3.33455 7.9056 3.33455H43.792L43.798 3.76081C43.8059 3.94827 43.8819 4.12641 44.0118 4.26182C44.1416 4.39722 44.3165 4.48058 44.5034 4.49625L48.0289 4.81144C48.0744 4.81476 48.1201 4.81476 48.1657 4.81144C48.8034 4.8037 49.412 4.54292 49.8575 4.08646C50.3031 3.63 50.549 3.01526 50.5413 2.37747C50.5335 1.73968 50.2727 1.13109 49.8163 0.685578C49.3598 0.240066 48.7451 -0.00587133 48.1073 0.00186882C48.0612 -0.00062294 48.015 -0.00062294 47.9689 0.00186882L44.4534 0.402111C44.2634 0.421919 44.0874 0.511482 43.9596 0.653485C43.8318 0.795488 43.7611 0.979844 43.7613 1.17091ZM50.3701 2.19426C50.3456 1.94195 50.2824 1.70483 50.1889 1.49163C50.2825 1.70499 50.3459 1.94231 50.3703 2.19486C50.3836 2.33178 50.3845 2.46639 50.3744 2.59707L50.3744 2.59194C50.3843 2.46267 50.3832 2.3296 50.3701 2.19426ZM62.7726 2.60063C62.7621 2.46883 62.763 2.33302 62.7764 2.19486C62.82 1.74438 62.9873 1.34233 63.2298 1.03836C62.9876 1.34225 62.8204 1.74407 62.7769 2.19426C62.7638 2.3296 62.7627 2.46268 62.7725 2.59194L62.7726 2.60063Z" fill="white"/>
</g>
<defs>
<clipPath id="clip0_1423_32989">
<rect width="110.9" height="44.3602" fill="white" transform="translate(0.900391)"/>
</clipPath>
</defs>
</svg>
