<svg width="42" height="34" viewBox="0 0 42 34" fill="none" xmlns="http://www.w3.org/2000/svg">
<g clip-path="url(#clip0_1_1850)">
<path d="M33.6913 0.50684C29.1256 0.50684 25.4241 3.74719 25.4241 7.74063C25.4241 9.59816 26.2476 11.2749 27.5626 12.5556C27.0125 13.8134 26.3353 15.0117 25.5417 16.1318C25.4818 16.2157 25.4432 16.3128 25.4292 16.4148C25.4151 16.5168 25.426 16.6207 25.4609 16.7176C25.5313 16.9198 25.6825 17.0406 25.8549 17.0406C28.4287 17.0406 30.5278 15.9342 32.0056 14.8213C32.5618 14.9228 33.1259 14.974 33.6913 14.9744C38.2576 14.9744 41.9585 11.736 41.9585 7.74063C41.9585 3.74525 38.2576 0.50684 33.6913 0.50684ZM33.6913 12.9076C33.2499 12.9073 32.8094 12.8675 32.375 12.7888L31.485 12.6273L30.7629 13.1711C30.236 13.5719 29.6706 13.9196 29.0752 14.2091C29.2044 13.9455 29.3336 13.6698 29.457 13.383L30.0298 12.0732L29.0048 11.0753C28.3144 10.4042 27.4909 9.27975 27.4909 7.74063C27.4909 4.89168 30.2721 2.57364 33.6913 2.57364C37.1106 2.57364 39.8917 4.89168 39.8917 7.74063C39.8917 10.5896 37.1106 12.9076 33.6913 12.9076ZM21.1413 19.1145C18.9583 19.0499 18.2801 20.1414 15.0895 20.1414C11.8989 20.1414 11.2278 19.0499 9.04475 19.1145C6.78834 19.1805 4.64651 20.1234 3.07399 21.7429C1.50147 23.3625 0.622097 25.5312 0.622559 27.7886V33.0589C0.622559 33.1959 0.676997 33.3274 0.773896 33.4243C0.870796 33.5212 1.00222 33.5756 1.13926 33.5756H2.17266C2.30969 33.5756 2.44112 33.5212 2.53802 33.4243C2.63492 33.3274 2.68936 33.1959 2.68936 33.0589V27.7886C2.68936 24.2815 5.44078 21.4332 8.88975 21.2136V26.4904C8.05717 26.7386 7.34177 27.2782 6.87434 28.0105C6.40692 28.7428 6.21871 29.619 6.34414 30.4786C6.46957 31.3383 6.90024 32.1241 7.55742 32.6924C8.2146 33.2607 9.05436 33.5734 9.92314 33.5734C10.7919 33.5734 11.6317 33.2607 12.2889 32.6924C12.946 32.1241 13.3767 31.3383 13.5021 30.4786C13.6276 29.619 13.4394 28.7428 12.9719 28.0105C12.5045 27.2782 11.7891 26.7386 10.9565 26.4904V21.5236C13.6381 22.4278 16.5422 22.4278 19.2237 21.5236V25.9672C17.4024 26.4516 16.1235 28.1955 16.1235 30.1395V32.0255C16.1244 32.2993 16.2335 32.5616 16.4271 32.7553L17.0923 33.4206C17.1892 33.5172 17.3204 33.5715 17.4573 33.5715C17.5941 33.5715 17.7253 33.5172 17.8222 33.4206L18.552 32.6907C18.6487 32.5939 18.7029 32.4626 18.7029 32.3258C18.7029 32.189 18.6487 32.0578 18.552 31.9609L18.1839 31.5928V29.9587C18.1849 29.6579 18.2512 29.361 18.3783 29.0884C18.5054 28.8158 18.6902 28.5741 18.92 28.3799C19.1497 28.1858 19.4189 28.044 19.7089 27.9642C19.9989 27.8843 20.3027 27.8685 20.5994 27.9177C21.6135 28.0857 22.3175 29.0416 22.3175 30.0685V31.5928L21.9493 31.9609C21.8527 32.0578 21.7984 32.189 21.7984 32.3258C21.7984 32.4626 21.8527 32.5939 21.9493 32.6907L22.6792 33.4206C22.776 33.5172 22.9073 33.5715 23.0441 33.5715C23.1809 33.5715 23.3121 33.5172 23.409 33.4206L24.0742 32.7553C24.2678 32.5616 24.3769 32.2993 24.3778 32.0255V29.9587C24.3748 29.0458 24.0687 28.1598 23.5075 27.4397C22.9464 26.7196 22.1621 26.2062 21.2776 25.9801V21.22C24.7266 21.4396 27.478 24.2879 27.478 27.795V33.0589C27.478 33.1959 27.5324 33.3274 27.6293 33.4243C27.7262 33.5212 27.8577 33.5756 27.9947 33.5756H29.0281C29.1651 33.5756 29.2966 33.5212 29.3935 33.4243C29.4904 33.3274 29.5448 33.1959 29.5448 33.0589V27.7886C29.5508 25.5327 28.6758 23.3637 27.1061 21.7435C25.5365 20.1233 23.3962 19.1799 21.1413 19.1145ZM11.4732 29.9587C11.4732 30.2653 11.3823 30.565 11.212 30.8199C11.0417 31.0748 10.7996 31.2735 10.5163 31.3908C10.2331 31.5081 9.92142 31.5388 9.62073 31.479C9.32005 31.4192 9.04384 31.2716 8.82706 31.0548C8.61027 30.838 8.46264 30.5618 8.40283 30.2611C8.34302 29.9604 8.37372 29.6487 8.49104 29.3655C8.60836 29.0823 8.80704 28.8402 9.06196 28.6698C9.31687 28.4995 9.61656 28.4086 9.92314 28.4086C10.3339 28.4096 10.7276 28.5733 11.0181 28.8637C11.3086 29.1542 11.4722 29.5479 11.4732 29.9587ZM15.0901 17.0412C16.7252 17.0412 18.3236 16.5564 19.6831 15.6479C21.0427 14.7395 22.1023 13.4484 22.728 11.9377C23.3537 10.4271 23.5175 8.76486 23.1985 7.16118C22.8795 5.5575 22.0921 4.08443 20.9359 2.92824C19.7797 1.77206 18.3067 0.984683 16.703 0.665691C15.0993 0.3467 13.4371 0.510418 11.9264 1.13614C10.4158 1.76187 9.12463 2.82149 8.21622 4.18102C7.30781 5.54056 6.82295 7.13893 6.82295 8.77403C6.82295 10.9666 7.69395 13.0694 9.24435 14.6198C10.7948 16.1702 12.8975 17.0412 15.0901 17.0412ZM15.0901 2.57364C16.3165 2.57364 17.5152 2.93728 18.5349 3.61859C19.5545 4.2999 20.3493 5.26827 20.8186 6.40124C21.2878 7.53421 21.4106 8.7809 21.1714 9.98366C20.9321 11.1864 20.3416 12.2912 19.4745 13.1584C18.6073 14.0255 17.5025 14.616 16.2998 14.8553C15.097 15.0945 13.8503 14.9717 12.7173 14.5024C11.5844 14.0331 10.616 13.2384 9.9347 12.2188C9.25339 11.1991 8.88975 10.0003 8.88975 8.77403C8.89231 7.13037 9.54638 5.55476 10.7086 4.39252C11.8709 3.23028 13.4465 2.5762 15.0901 2.57364Z" fill="white"/>
</g>
<defs>
<clipPath id="clip0_1_1850">
<rect width="41.3359" height="33.0688" fill="white" transform="translate(0.622559 0.506836)"/>
</clipPath>
</defs>
</svg>
