<svg width="39" height="35" viewBox="0 0 39 35" fill="none" xmlns="http://www.w3.org/2000/svg">
<g clip-path="url(#clip0_1_1858)">
<path d="M36.4875 6.42929C36.0723 6.42929 35.6504 6.54984 35.2686 6.81104L27.9216 11.4925V7.48748C27.9216 5.71937 26.3678 4.28613 24.4524 4.28613H3.52978C1.61434 4.28613 0.0605469 5.71937 0.0605469 7.48748V26.8027C0.0605469 28.5708 1.61434 30.004 3.52978 30.004H24.4524C26.3678 30.004 27.9216 28.5708 27.9216 26.8027V22.7977L35.2619 27.4791C35.6437 27.747 36.0723 27.8609 36.4808 27.8609C37.5926 27.8609 38.6307 26.9902 38.6307 25.7512V8.53896C38.6374 7.29995 37.5993 6.42929 36.4875 6.42929ZM25.7784 26.8027C25.7784 27.3787 25.169 27.8609 24.4524 27.8609H3.52978C2.81317 27.8609 2.2037 27.3787 2.2037 26.8027V7.48748C2.2037 6.9115 2.81317 6.42929 3.52978 6.42929H24.4524C25.169 6.42929 25.7784 6.9115 25.7784 7.48748V26.8027ZM36.4942 25.7512L36.4139 25.6641L27.9216 20.2527V14.0308L36.4942 8.57245V25.7512Z" fill="white"/>
</g>
<defs>
<clipPath id="clip0_1_1858">
<rect width="38.5768" height="34.2905" fill="white" transform="translate(0.0605469)"/>
</clipPath>
</defs>
</svg>
